<svg version="1.1" xmlns="http://www.w3.org/2000/svg" xmlns:xlink="http://www.w3.org/1999/xlink" x="0px" y="0px" viewBox="0 0 168 18" style="enable-background:new 0 0 168 18;" xml:space="preserve">
<polygon fill="#0d7a79" class="st0" points="5.3,2.8 0.8,2.8 0.8,1.1 12.5,1.1 11.9,2.8 7.5,2.8 7.5,16.9 5.3,16.9 "/>
<path fill="#0d7a79" class="st0" d="M21.4,1h1.5L29,16.9h-2.3l-1.6-4.2h-6.1l-1.5,4.2h-2.2L21.4,1z M24.5,11l-1.5-4.1c-0.5-1.3-0.7-2.1-0.9-2.6h0
	c-0.2,0.6-0.4,1.3-0.9,2.7L19.7,11H24.5z"/>
<polygon fill="#0d7a79" class="st0" points="36.6,2.8 32,2.8 32,1.1 43.7,1.1 43.1,2.8 38.7,2.8 38.7,16.9 36.6,16.9 "/>
<path fill="#0d7a79" class="st0" d="M52.6,1h1.5l6.1,15.9H58l-1.6-4.2h-6.1l-1.5,4.2h-2.2L52.6,1z M55.8,11l-1.5-4.1c-0.5-1.3-0.7-2.1-0.9-2.6h0
	c-0.2,0.6-0.4,1.3-0.9,2.7L51,11H55.8z"/>
<path fill="#0d7a79" class="st0" d="M66.9,1.1h2l4.3,6.4c0.6,1,1,1.6,1.4,2.2h0c0.4-0.6,0.8-1.3,1.4-2.3l4-6.3h2v15.8H80V7.1c0-0.7,0-1.7,0-2.5h0
	c-0.3,0.6-0.8,1.4-1.1,1.9l-3.6,5.8h-1.1l-4-5.9c-0.3-0.5-0.8-1.1-1.1-1.7h0c0,0.7,0,1.7,0,2.4v9.8h-2.1V1.1z"/>
<rect fill="#0d7a79" x="90" y="1.1" class="st0" width="2.1" height="15.8"/>
<path fill="#0d7a79" class="st0" d="M98.3,1.1h2.4l3,9.4c0.3,1,0.7,2.1,1,3.2h0.1c0.3-1.2,0.6-2.2,1-3.2l2.3-6.7l-0.9-2.7h2.2l3.1,9.4
	c0.3,1,0.7,2.1,1,3.3h0c0.3-1.2,0.6-2.2,0.9-3.2l2.9-9.4h2.2L114.3,17h-1.8l-2.5-7.2c-0.4-1.2-0.7-2.1-1-3.2H109
	c-0.3,1.1-0.6,1.9-1,3.2l-2.5,7.2h-1.8L98.3,1.1z"/>
<path fill="#0d7a79" class="st0" d="M129.1,1h1.5l6.1,15.9h-2.3l-1.6-4.2h-6.1l-1.5,4.2h-2.2L129.1,1z M132.3,11l-1.5-4.1c-0.5-1.3-0.7-2.1-0.9-2.6
	h0c-0.2,0.6-0.4,1.3-0.9,2.7l-1.5,4.1H132.3z"/>
<polygon fill="#0d7a79" class="st0" points="142.3,1.1 144.4,1.1 144.4,8.2 144.5,8.2 150.3,1.1 152.8,1.1 146.3,8.9 153.2,16.9 150.6,16.9 
	144.5,9.8 144.4,9.8 144.4,16.9 142.3,16.9 "/>
<polygon fill="#0d7a79" class="st0" points="159.2,1.1 167.2,1.1 166.5,2.8 161.3,2.8 161.3,7.9 166.5,7.9 166.5,9.7 161.3,9.7 161.3,15.2 
	167.3,15.2 167.3,16.9 159.2,16.9 "/>
</svg>
