<svg xmlns="http://www.w3.org/2000/svg" viewBox="0 0 300 70"><g fill="#009E41"><path d="M48.1 29c4.2-2.3 13.5-7.7 13.7-7.9 8.2-4.9 9.4-6.8 9.5-11.1.1-3.9-3-9-14.1-9.1-9.9-.1-20 5.6-20.8 12.4 0 .7-.1 3.7 1.6 6.2 1.5 2.1 4 4.4 6.6 6.5 3.2 2.7 3.5 3 3.5 3zM51.3 32.3c1.5-.7 6.1-3.3 9.3-5.5 3.2-2.1 13.3-8.5 20.1-8.3 6.9.2 12.4 3.4 13.6 8.2 1.3 5-2.4 10.8-7.9 14.2-5.6 3.4-12 4.7-16.6 4.2-4.6-.5-8.3-3.1-11.1-5.5-4.4-4-7.4-7.3-7.4-7.3zM47.3 34.8c.8.8 4.3 4.1 5.8 5.3 1.5 1.1 7.9 7.1 7.8 12.1-.1 4.7-3 10.6-11.7 14.2-10.6 4.5-27.4 3.9-29.6-5.9-1.1-4.7 1.2-9.6 7-13.2.7-.4 15.1-9.2 16.6-10 1.6-.8 4.1-2.5 4.1-2.5zM.6 35.4C-.2 30.2 3.9 23 18.5 20.2c14-2.7 18.7 5.3 19.1 6.7.3 1.4 2.7 11.8-15.2 16.6-7.1 1.8-20.5 0-21.8-8.1z"/></g><g fill="#231815"><path d="M122.2 10.4c.3 4.2-2 6.6-3.7 9.6-1.1 1.4-2.2 2.9-3.3 4.4 0 .5-.1 1 .3 1.7l-.2 3.7v1.8c-.2.5-.1 1.2-.2 2.8-.2 6.4-.1 12.4.1 19.3l.1 1.9c.2 2.7-.2 4.6-2.3 6.6-1.4.1-2.4-.8-3.1-2-1.5-3.5.1-7.9.1-11.2l.2-19c-.5-.3-1.2-.1-1.5.2-1.5.7-2.7 1.8-4.2 1.5-1.8-1.3-4-1.8-5-4-.1-1.3 2-1.4 3.9-2.8 8-4.9 11.9-10.6 15.2-16.6.8-1.1 1.5-.5 2.1-.3.8.7 1.2 1.4 1.5 2.4z"/><path d="M157.8 14.9c.6.6 1.1 1.7.9 2.7-1 1.5-.9 5.3-.2 5.7 3.9.4 7.9 0 11.5 1.1.6 2.1-1.8 3.3-2.8 4.2-2.2 2.5-6 1.6-9.2 1.5-1.5.8-1.2 3.6-1.6 5.6-.5 3.1-.8 7-3.7 8.2-2 .6-3.3-.6-4.6-1.7-1.9-.2-3.9-.9-5.9-.6-.8.3-.5 1.3-.7 1.9-.9 7.5-2.2 14.9-8.1 19.8-2.7 0-5-1.4-7.3-2-.4-.1-.3-.6-.3-.9 4.9-3.4 8-7.8 9.8-14.9-.1-1.2.9-2.9-.4-3.7-4.1 0-7.9 1.1-11.6 2.4-.9.1-1.8-.3-2.1-1.2-.5-1.4.1-3.3.9-4.4 3.2-2.6 6.6-2.1 10.3-2.8 1.4-.4 3.3.4 4-1.2.4-1.5.1-4.5-.3-4.6-2.4-.2-8.1.3-12.6 1.5-1.8 0-2.4-.1-3.6-.7-.3-.6-.8-1.4-.5-2.3 1.2-2.3 4.3-4.3 7.1-4.6 3.1.1 6 .2 9-.3.8-.4.8-1.1.8-1.9l-.1-1.5c-.3-1.4 0-1.7-1.1-2.6-1.8-1.9-3.6.4-6.3-.5-1.2-.5-2.3-1-3-2.1-.5-1.8.9-2.5 1.9-3.4 1.7-1.3 4.9-.6 6.8-1 5.6.5 10.9-.2 16.6 0 2.7.6 4.6 2.5 6.4 4.3zm-12.7 1.8c-.9.2-2.8-.3-3.3 1.1.2 1.7-.3 4 .6 5.4.2.3 1.2.4 3.5.4 2.1 0 4.4-.2 4.8-.9.2-1.8.4-4.2-1.4-5.5-1.1-.8-2.9-.4-4.2-.5zm4.7 12.7c-2-.5-6-.1-7.1 0l-.5.5c0 1.4-.5 3.7.2 5.6 2.5.4 4.5.4 6.3.2 1.8-1 1.6-4 1.6-5.5l-.5-.8zM215.4 9.6c.3.7.3 1.7.3 2.6 4.4.5 8.7.1 13.2.6.7.4.8 1.5.6 2.3-.6 1.3-1.7 3-3.3 3.4-2.5.3-4.8-.9-7.2-1-1.6 0-3.3-.1-4.4.1-.6 1.2-1.3 2.1-1.9 2.6-.5.4-1 .7-1.6 1-1.1 0-1.3-.2-1.6-.8-.4-1-.6-2.1-.6-3l-9.8.1c-.4.2-.3 1-.4 1.3-.2 1.1-.4 1.8-1 2.5-.5.6-1.5.7-2.1.3-1.2-1.2-1.4-1.9-2.2-3.5-.4-.5-1.3-.4-2-.3-4.4.1-8.7 1.4-12.8.8-.7-.1-1.3-.8-1.5-1.4-.4-2.1 1.8-2.8 3-3.7 3.1-1 7.7.2 10.8-.6.1-.4 0-.8-.2-.9-.2-.6-.4-1.3-.2-2 .4-.6.6-1.1 1.5-1 2.2-.2 4.7 1 5.2 2.4.3.3.2 1 .5 1.3 2.7.4 4.3-.1 5.9.1l5.3-.1c.8-1.1 0-2.2.1-3.3.3-.5.9-.8 1.5-.9 1.7-.4 3.5.3 4.9 1.1z"/><path d="M215 21.6c1.1 1.1.8 2.3.7 3.9v.6c0 .2-.2.6 0 .6.3.6 1.2.2 1.5-.1 1-1.3 2.1-2.9 2.2-4.8.4-.7 1-.9 1.8-1 1.7.2 3.2 1 3.8 2.6.5 1.8-1.9 1.9-2.1 3.3.4.5 2.4.2 2.8 1.3.1 1.2-.8 1.9-1.6 2.8-2.6.8-8.1-.2-8.7.2-.3.3-.1.8-.2 1.1.8.7 2 .1 2.8.4 3 0 6.5-.2 9.2.7.3.5.3 1.3-.1 1.7-1.1 2.3-4.5 1.8-6.9 1.9 2.2 2.1 5.5 3.4 8.4 5.1 3.4 1.8 5.9 2.9 7.6 4 .3.2.3.8.2 1-.4.6-.9 1-2.8 1.7-2.4.9-3.1.9-4.8.6-2.4-1.2-4.7-3.9-5.8-4.9-2.9-3.1-5.6-5.7-8.9-7.9-.8-.2-1.5 0-2 .4-2.6 2.4-6 4.9-8.7 7.2 2.8-.1 5.5.9 6.5 3 .2.9.2 1.6-.7 1.9-2.2.3-4.9-.2-6.6-.7-.6-.5-.7-1.1-.8-1.9.1-1.2 1.1-1.7 1.1-1.9-1.9 1-3 2.8-6.3 1.8-.3 3.9-.3 7 .3 10.8-.4 1.9-1.1 4.1-3 5.5-.8.1-1.5-.4-1.8-.9-3-4.3-.2-10.1-1.2-14.9l-.3-.3c-2 0-4.5-.2-6.2.2-1.1.9-1.8 4.2-2.6 6.1-1.5 3-3.3 5.6-5.7 8.2-2.3 1.5-4.6-.6-6.3-1.5-.4-.2-1-.9-1-1.4 2-2.6 4.4-3 6.9-6.2 3.9-6.2 4.2-14.5 4.2-22.6-.4-1.4-1.1-3.5.2-4.6 1.7-2.8 5.5-1.4 8.3-1.8 2.5.1 5.3-.7 7.5.5 1.3 1.1 3.4 2.6 2.5 4.7-1.7 3.1-1 7.3-1.8 10.6.4.9-.2 2.6.9 2.9 2.9-1.1 7-2.8 8.3-4.3-.9-.2-2.1.2-3.6 0-1-.1-2.4 0-3.2-.7-.2-1.9 1.4-2.2 2.1-2.8 2.9-1.3 6.2-.8 9.4-1.3.1-.2.4-.3.4-1l-.6-.3c-2.6.1-5.4.4-7.4.3-1.1-.2-1.5-.3-1.9-1.4-.2-1 .5-1.8 1-2 1.1-.6 2.1-.6 2.9-.7.1-.1 0-.3.1-.4-1-1.3-2.8-1.9-2.2-3.7-.1.1.6-1 2-1.3.4 0 .7 0 1 .1 2 .9 3.7 2.7 3.4 5 .8.1 1.3 0 1.6-.4.4-.9-.1-3.2.4-4.1.4-.7.9-1.5 1.9-1.9.6.1 1.2.3 1.9 1zm-29.7 6.9c-.4 1.1-.5 3.3.6 3.5 1.6.2 3.6.4 5.1-.2-.1-.9.6-2.1.1-3-1-1.5-4.3-1.2-5.8-.3zm2.3 8.3c-.8.1-2.1-.4-2.7.5-.1.9-1.1 4.4.6 4.4 1.7.1 5.1.4 5.5-.5v-3.5c.2-1.3-1.9-.9-3.4-.9z"/><path d="M215.6 42.1c1 1.8-.5 3.8.3 5.8.8 0 2.2-1.7 2.5-3.1.4-.7 1.2-.9 2-.7 1.3.5 3.1 1.7 3.3 3.4-.1 1.6-2.3 1.9-3.3 2.5-1 .5-2.6 1.1-3.4 1.5-.1.2.2.4.4.5 3.6 1.5 8 1.5 11.1 3.5.5.6.2 1.3 0 1.7-1.3 1.5-2.8 2.6-5.4 2.6-.5 0-.8-.3-1.1-.5-2.1-1.7-4.2-3.1-6.1-4.2-.7-.2-.5.4-.6 1.3.1 2.6-.2 5-2.4 6.2-1.6-.2-2-2.4-2.4-4 .1-.8 0-3.2 0-4.1-.1-.3-.3-.3-.5-.1-2.3 1.6-4.6 3.2-7.1 4.8-.8.4-1.9.2-2.6-.4-.7-1.1-2-2.2-1.5-3.9 2.7-2.2 6.4-2.3 9.5-3.9.6-.5 1.7.3 2.2-.5-.1-3.2-.3-6.5-.2-9.7.5-.7.6-1.3 1.3-1.3 2.7-.6 3 1.5 4 2.6zM299.3 15c.8 2.6-.9 3.5-.9 7.6-.6 4.1.2 5.8-.1 9l.1 2.6.1 5.9c.6.5-.2 6.7.2 8.5-.3 5.9.5 5.2-.7 9.9-.5 1.8-1.7 4-3.7 4.4-1.3.2-2.1-.5-3.1-.8-5.4-2-12-2.2-21.5-2.4-5 .1-11.6-.1-18.6 1.9-1.4.4-3.3.2-4.2-.4-1-1.9-.8-3.6-.7-5.8 0 0 .4-3.6.6-6.4-.1-.8.1-5.6 0-7.2.2-6.1 0-12-.3-18.5l-.1-1.5c-.3-3.2-1.5-5.7-.7-9.2 1.2-2.3 3.6-2.2 5.9-2.2 1.5 0 1.7.8 2.7.9 9.8-.1 19.9-1.2 29.8-.6 2.4.3 4.5 0 7-.1 2.3-.4 3.6.1 5.1.6 1.7 1 2 2.4 3.1 3.8zm-23 .6c-1.1.1-1.7.1-2.1.8 0 .8-.2 2.1.4 2.3 3.3 0 6.8-.2 9.4.4.5.3.9.3.9.9-.2.8-.5 1.5-1.6 2l-7.8.2-1.1.2c-1.1.9-.2 1.5.2 1.8 5.3.3 9.5.1 14.7.8l.9.2c.8 1.9-1.3 4.1-3.2 5-7-1.2-13.9-2-21.1-1.1-3.6.3-7.2 2-10.2 3.2-.8-.2-1.5-.6-1.6-1.5-.2-1.3.2-2.7.6-3.6 1.8-1.8 3.7-2 6.3-2.2 2.6-.3 5.8-.5 7.3-.7.1-.4.4-1.1.2-1.4-1.4-.1-2.8-.1-4 .1-2.3 0-5 .9-6.7-.4-.3-.4-.2-1.2.2-1.8 3.4-2.4 7.6-1.8 10.3-2.1.4-.8.1-2.2-.2-2.8-1.5-.5-8.7.1-12.7.7-1 .2-3.1.4-3.4 1.7-.4 5.3-.4 10.3-.2 16.1-.2 2.5-.3 5-.1 7.6l-.1 1.9c0 1.7-.2 3.5.7 3.8 4.3.3 8.3-3.4 12-5.9l-.2-.6-1.1-.1c-1-.4-1.1-.8-1.3-1.7-.3-4-3.3-4-2-6.9.6-.8 1.1-1.5 2.2-1.5 5.4.1 9.4-1 16.2-.6 1.5.1 2.9-.5 4.7 1.1.7 1 1.2 1.5.8 2.9-1.5 1.5-1.7 3.2-2.6 5.1-1.2 2.2-3.9.8-6 1.2-.7-.1-.9.7-.8 1.1 0 1.2 1.4 2.1 2.4 2.7 1.9-.4 2.6-1.1 3.7-2.3 1.2-1 1.7-3.4 3.4-3.3 1.8.4 2.5 2.3 2.9 4-.2.5.1 1.1-.8 1.3-1.9.4-4.1 1.5-4.8 2.1-.3.5 1.8 1.1 2.7 1.4 2.2 1.2 5.7 1.1 6.4 2.8-.1 1.2-2.1 2.7-3.8 3.7-2.4 1.2-5.1-1.8-7.6-3.2-1.6-.9-3.8-3.5-4.6-3.5l-.1 1.2c-.1 1.9-.4 7 .1 6.9 2.6-.1 5.2 0 7.7.3 3-.1 6.7.3 9.6.2.4-.1.9-.6.9-1.1.1-1.9.2-3.3.4-5-.3-3.8-.1-7.8-.1-11.7l-.1-.1-.1-2c-.2-3.3-.1-4.9-.1-8.3-.3-3.2 0-7.7-1.3-10.8-3.9-2.4-9.9-.9-14.7-1.5zm-1.7 19.1c-2.1-.1-3.3-.1-5.4 0-.8.1-1.4.1-2.3.4.3.4.3 1.3.7 1.5 3.1-.1 6.1-.1 9-.1.3-.2.3-1.3-.1-1.5-.7-.1-1.3-.2-1.9-.3zm-6.2 19.2c-.5-2.9.5-6.4 0-9.1l-2.8 2.3c-2.5 1.8-5.3 4.4-7.9 5.3-3.1.5-3.9-1.2-5.5-1.8-.2 0-.4 0-.5 1.1.1.6-.1 3.3.2 3.8.4.8.4-.1.9.7 5.7-.2 10.7-.5 16.1-.6-.1-.7-.4-1.1-.5-1.7z"/></g></svg>