<svg xmlns="http://www.w3.org/2000/svg" width="54" height="300" viewBox="0 0 54 300"><g fill="#fff"><path d="M52.3 18c0-.1 0-.2-.1-.3-.1-.1-.1-.2-.2-.3-.1-.1-.1-.3-.2-.4l-.3-.3-.3-.3c-.1-.1-.3-.1-.4-.2-.1-.1-.2-.3-.3-.3l-.3-.3c-.1-.1-.3-.1-.4-.2-.1-.1-.3-.1-.4-.2l-.3-.3c-.1-.1-.3-.1-.4-.1l-.3-.3c-.1-.1-.3-.1-.4-.2-.1 0-.3 0-.4-.1-.1 0-.3-.1-.4-.2h-.4c-.1 0-.3-.1-.4-.1h-.7c-.1 0-.2-.1-.3-.2-.1 0-.3.1-.4 0-.1 0-.3-.2-.4-.2h-.4c-.1 0-.3 0-.5.1-.1.1-.2.2-.3.4l-.3.3c-.1.1-.2.1-.3.2-.1.1-.1.2-.2.3-.1.1-.1.2-.2.3 0 .1-.1.2-.2.3 0 0-.1.2-.2.3-.1.1-.2.1-.3.2-.1.1-.1.3-.1.4 0 .1-.2.2-.2.4 0 .1.2.2.2.4 0 .1.1.3.1.4v.4c0 .1 0 .3.1.4 0 .1.1.2.2.4 0 .1.1.3.1.4v.8c0 .1.1.3.2.4v.4c0 .1.1.3.1.4 0 .1 0 .3.1.4 0 .1-.1.3-.1.4 0 .1-.1.3 0 .4 0 .1 0 .3.1.4 0 .1.1.3.1.4 0 .1-.1.3-.1.4v.4c0 .1.1.3.1.4 0 .1-.1.3-.1.4 0 .1.1.3.1.4 0 .1-.1.3-.1.4v.8c0 .1.1.3.1.4 0 .1-.2.3-.2.4 0 .1.1.3.1.4 0 .1-.1.3-.1.4 0 .1-.2.2-.2.4 0 .1 0 .3-.1.4 0 .1.1.3.1.4 0 .1-.1.3-.1.4 0 .1-.1.2-.2.4 0 .1 0 .3-.1.4v.4c0 .1 0 .3-.1.4 0 .1 0 .3-.1.4 0 .1-.1.2-.2.4v.4c0 .1-.1.3-.1.4 0 .1-.2.2-.3.3 0 .1 0 .3-.1.4 0 .1-.1.3-.1.4 0 .1-.1.3-.1.4v.4c0 .1-.1.3-.1.4 0 .1-.2.2-.2.3 0 .1-.1.2-.2.4 0 .1 0 .3-.1.4 0 .1-.1.3-.1.4l-.3.3c-.1.1-.1.3-.1.4-.1.1-.1.3-.1.4-.1.1 0 .3-.1.4-.1.1-.1.2-.2.4-.1.1-.1.2-.2.4-.1.1-.2.2-.2.3-.1.1-.1.3-.1.4l-.3.3c-.1.1 0 .3-.1.4-.1.1-.1.2-.2.4-.1.1-.2.2-.2.3-.1.1-.1.3-.2.4l-.3.3c-.1.1-.1.3-.1.4-.1.1-.1.2-.2.3l-.3.3-.3.3c-.1.1-.1.3-.1.4-.1.1-.1.2-.2.4-.1.1-.3.1-.3.3-.1.1 0 .3-.1.4-.1.1-.3.1-.4.2-.1.1-.1.2-.2.4-.1.1-.1.3-.2.4-.1.1-.2.2-.2.3-.1.1-.2.2-.2.3l-.3.3c-.1.1-.1.3-.2.4l-.3.3c-.1.1-.3.1-.4.2-.1.1-.1.3-.1.4-.1.1-.3.1-.4.2-.1.1-.1.3-.2.4-.1.1-.3.1-.4.2-.1.1-.1.3-.1.4l-.3.3c-.1.1-.3.1-.4.2-.1.1-.1.3-.2.4-.1.1-.2.1-.3.2l-.3.3c-.1.1-.2.1-.3.2l-.3.3c-.1.1-.2.1-.4.2l-.3.3c-.1.1-.2.1-.3.2-.1.1-.3.1-.4.2l-.3.3c-.1.1-.2.1-.4.2l-.3.3c-.1.1-.2.1-.4.2-.1.1-.3.1-.4.1-.1.1-.1.3-.3.4-.1.1-.3.1-.4.1-.1.1-.3.1-.4.1-.1.1-.2.2-.3.2-.1.1-.2.2-.3.2-.1.1-.2.1-.4.2-.1.1-.2.2-.3.2-.1.1-.3 0-.4 0-.1.1-.2.2-.3.2-.1.1-.2.1-.4.2-.1.1-.3 0-.4.1-.1 0-.2.2-.3.2-.1 0-.2.1-.4.2h-.4c-.1 0-.2.1-.4.2-.1 0-.3.1-.4.1-.1 0-.3 0-.4.1-.1 0-.3 0-.4.1-.1 0-.3.1-.4.1-.1 0-.3-.1-.4 0-.1 0-.3.1-.4.1-.1 0-.3.1-.4.2h-.8c-.1 0-.3.1-.4.1h-.4c-.1 0-.3.1-.4.1h-.4c-.1 0-.3-.1-.4-.1-.1 0-.3.1-.4.1h-.4c-.1 0-.3-.1-.4-.1-.1 0-.3.1-.4.1H13.1c-.1 0-.3 0-.4-.1-.1 0-.3-.1-.4-.1-.1 0-.3-.1-.4-.2H10.7c-.1 0-.2-.1-.4-.1-.1 0-.2-.2-.4-.2-.1 0-.3.1-.4 0-.1 0-.3-.1-.4-.1-.1 0-.3-.1-.4-.1-.1 0-.3-.1-.4-.1-.1 0-.3-.1-.4-.1-.1 0-.3 0-.4-.1-.1 0-.3 0-.4-.1-.1 0-.2-.1-.4-.2H6c-.1 0-.3-.1-.4-.1h-.4c-.1 0-.3-.1-.4-.1-.1 0-.2-.2-.4-.2-.1 0-.3 0-.4.1-.1.1-.1.2-.1.3 0 .1-.1.3 0 .4.1.1.2.1.3.2.1.1.2.1.3.2l.3.3c.1.1.3.1.4.2l.3.3c.1.1.3 0 .4.1.1.1.2.1.4.2.1.1.2.2.3.2.4.2.6.2.7.3l.3.3.3.3c.1.1.3.1.4.1.1.1.2.2.4.2.1.1.2.1.4.2.1.1.3.1.4.1.1.1.3 0 .4.1l.3.3c.1.1.3 0 .4.1.1.1.2.2.3.2.1.1.3 0 .4.1.1 0 .3 0 .4.1.1 0 .2.1.4.2.1 0 .2.2.4.2.1 0 .3 0 .4.1.1 0 .3.1.4.2h.4c.1 0 .3.1.4.1.1 0 .3.1.4.1.1 0 .3.1.4.1.1 0 .3-.1.4-.1.1 0 .3.1.4.1h.4c.1 0 .3.1.4.1h.8c.1 0 .2.1.4.2.1 0 .3.1.4.1h.8c.1 0 .3.1.4.1h.4c.1 0 .3 0 .4.1h.4c.1 0 .3-.1.4 0 .1 0 .3.1.4.1h.4c.1 0 .3.1.4.1.1 0 .3-.1.4-.1.1 0 .3-.1.4-.1.1 0 .3.2.4.2.1 0 .3-.2.4-.2H24.9c.1 0 .3-.1.4-.1h.4c.1 0 .3 0 .4-.1.1 0 .3-.1.4-.1.1 0 .3 0 .4-.1h.4c.1 0 .3-.1.4-.1h.4c.1 0 .2-.2.4-.2h.4c.1 0 .2-.2.4-.3.1 0 .3.1.4 0 .1 0 .3-.1.4-.1.1 0 .3-.1.4-.1.1 0 .3-.1.4-.1.1 0 .3-.1.4-.1.1 0 .2-.1.4-.2.1 0 .3-.1.4-.1.1 0 .2-.1.4-.2.1-.1.2-.1.4-.2.1-.1.2-.2.3-.2.1-.1.3-.1.4-.2.1-.1.3 0 .4 0l.3-.3c.1-.1.3 0 .4-.1l.3-.3c.1-.1.2-.1.4-.2.1-.1.3-.1.4-.2.1-.1.3-.1.4-.1.1-.1.2-.3.3-.3.1-.1.2-.1.3-.2.1-.1.3 0 .4-.1.1-.1.2-.2.3-.2.1-.1.1-.3.3-.3.1-.1.3 0 .4-.1.1-.1.2-.1.3-.2.1-.1.1-.3.2-.4.1-.1.3 0 .4-.1l.3-.3.3-.3c.1-.1.1-.3.2-.3.1-.1.3-.1.4-.2l.3-.3.3-.3c.1-.1.2-.2.2-.3.1-.1.3-.1.4-.2l.3-.3c.1-.1.1-.3.2-.4.1-.1.2-.1.3-.2.1-.1.1-.3.2-.4.1-.1.3-.1.4-.2l.3-.3c.1-.1.1-.3.2-.4.1-.1.2-.1.3-.2.1-.1.1-.2.2-.3l.3-.3c.1-.1.1-.3.2-.4l.3-.3c.1-.1.1-.2.2-.3l.3-.3c.1-.1.1-.2.2-.3l.3-.3c.1-.1.1-.2.2-.4.1-.1.3-.2.3-.3.1-.1.1-.3.2-.4l.3-.3c.1-.1.1-.2.2-.3.1-.1.1-.2.2-.3.1-.1.1-.2.2-.4.1-.1 0-.3.1-.4l.3-.3c.1-.1.1-.2.2-.4l.3-.3c.1-.1 0-.3.1-.4l.3-.3c.1-.1.1-.3.2-.4.1-.1 0-.3.1-.4.1-.1.2-.2.2-.3.1-.1.1-.2.2-.4.1-.1.1-.2.2-.4l.3-.3c.1-.1 0-.3.1-.4.1-.1.1-.3.2-.4l.3-.3c.1-.1 0-.3 0-.4.1-.1.1-.3.1-.4l.3-.3c.1-.1.1-.2.2-.4 0-.1.1-.3.2-.4 0-.1.1-.3.1-.4 0-.1-.1-.3 0-.4 0-.1.3-.2.3-.3 0-.1.1-.3.1-.4 0-.1.1-.2.2-.4V36c0-.1.2-.2.2-.4 0-.1.1-.3.1-.4 0-.1-.1-.3 0-.4 0-.1.1-.3.1-.4 0-.1.1-.3.1-.4v-.4c0-.1.1-.3.1-.4 0-.1.2-.2.2-.4 0-.1-.1-.3 0-.4 0-.1.2-.2.2-.4 0-.1-.1-.3-.1-.4 0-.1 0-.3.1-.4 0-.1.2-.2.2-.4 0-.1.1-.3.1-.4 0-.1-.1-.3-.1-.4 0-.1.1-.3.1-.4v-.4c0-.1.2-.3.2-.4v-.4c0-.1-.1-.3-.1-.4 0-.1.2-.3.2-.4 0-.1-.2-.3-.2-.4 0-.1.1-.3.1-.4v-.4c0-.1.1-.3.1-.4v-.4c0-.1.1-.3.1-.4v-.4-.4c0-.1 0-.3-.1-.4v-.4-.4c0-.1-.1-.3-.1-.4v-.4c0-.1-.1-.3-.1-.4v-.4c0-.1-.1-.3-.1-.4v-.4-.4c0-.1-.2-.2-.2-.4 0-.1.1-.3 0-.4 0-.1-.2-.2-.2-.4 0-.1 0-.3-.1-.4 0-.1-.1-.2-.2-.4s-.2-.3-.2-.4z"/><path d="M4.8 52c.1 0 .2.1.4.1.1 0 .3.2.4.2.1 0 .3-.1.4-.1.1 0 .3.1.4 0 .1 0 .3-.1.4-.1.1 0 .2-.1.4-.2.1 0 .2-.1.4-.2.1-.1.3-.1.4-.1.1-.1.3 0 .4-.1.1-.1.1-.3.2-.4 0-.1.2-.1.3-.2.1-.1.3-.1.4-.1.1-.1.1-.3.2-.4l.3-.3.3-.3c.1-.1.1-.3.1-.4 0-.1.1-.3.1-.4 0-.1.1-.3.1-.4 0-.1 0-.3.1-.4 0-.1 0-.2-.1-.4 0-.1-.1-.2-.1-.4V47c0-.1-.1-.2-.1-.4 0-.1.1-.2.1-.4 0-.1-.1-.3 0-.4 0-.1.1-.3.1-.4 0-.1.1-.3.1-.4 0-.1 0-.3.1-.4 0-.1.1-.3.1-.4v-.4c0-.1.1-.3.1-.4 0-.1.1-.3.1-.4 0-.1.1-.3.2-.4v-.4c0-.1.1-.3.1-.4 0-.1-.1-.3 0-.4 0-.1.2-.2.2-.4 0-.1.1-.3.1-.4 0-.1.2-.2.2-.4 0-.1 0-.3.1-.4 0-.1.1-.3.1-.4V39c0-.1.1-.2.2-.4 0-.1.1-.2.2-.4 0-.1.1-.3.1-.4 0-.1.2-.2.2-.4 0-.1.1-.3.1-.4 0-.1.1-.2.2-.4 0-.1.2-.2.2-.4 0-.1.1-.3.1-.4.1-.1 0-.3.1-.4.1-.1.2-.2.2-.3.1-.1 0-.3 0-.4l.3-.3c.1-.1.1-.3.2-.4.1-.1.1-.3.2-.4l.3-.3c.1-.1.1-.2.2-.4.1-.1 0-.3 0-.4l.3-.3c.1-.1.1-.3.1-.4.1-.1.2-.2.2-.4.1-.1.1-.2.2-.4.1-.1.1-.3.2-.4.1-.1.1-.2.2-.4.1-.1.1-.3.2-.4.1-.1.2-.2.2-.3l.3-.3c.1-.1.1-.2.2-.4.1-.1.1-.2.2-.4.1-.1.1-.3.2-.4l.3-.3c.1-.1.1-.2.2-.4l.3-.3c.1-.1 0-.3 0-.5.1-.1.3-.2.3-.3.1-.1.1-.3.2-.4.1-.1.1-.2.2-.3.1-.1.1-.2.2-.4l.3-.3.3-.3c.1-.1.1-.3.2-.4.1-.1.1-.2.2-.3l.3-.3c.1-.1.2-.2.2-.3l.3-.3.3-.3.3-.3c.1-.1.1-.3.2-.4.1-.1.3-.1.4-.2.1-.1.1-.3.2-.4l.3-.3.3-.3c.1-.1.3-.1.4-.2.1-.1.1-.3.1-.4.1-.1.2-.1.3-.2l.3-.3c.1-.1.2-.1.3-.2.1-.1.1-.2.2-.3.1-.1.3-.1.4-.2.1-.1.1-.3.2-.3l.3-.3c.1-.1.2-.1.3-.2.1-.1.1-.3.2-.4.1-.1.3-.1.4-.2.1-.1.1-.3.2-.3l.3-.3c.1-.1.3-.1.4-.2.1-.1.2-.1.3-.2.1-.1.1-.3.3-.3.1-.1.3-.1.4-.2.1-.1.2-.1.4-.2.1-.1.2-.2.3-.2.1-.1.1-.3.3-.3.1-.1.2-.1.4-.2.1-.1.2-.1.3-.2l.3-.3c.1-.1.2-.2.3-.2.1-.1.2-.1.3-.2.1-.1.2-.1.3-.2.1-.1.2-.2.4-.2.1-.1.2-.2.3-.2.1-.1.3-.1.4-.2.1-.1.2-.1.4-.2.1-.1.2-.1.4-.2.1-.1.3-.1.4-.2.1-.1.2-.1.4-.2.1-.1.2-.2.4-.2.1-.1.2-.1.4-.2.1-.1.3-.1.4-.1.1-.1.2-.2.3-.2.1-.1.3-.1.4-.2.1-.1.3-.1.4-.2.1-.1.3-.1.4-.1.1 0 .3-.1.4-.2.1 0 .3 0 .4-.1.1 0 .3-.1.4-.1.1 0 .3 0 .4-.1.1 0 .2-.2.4-.2.1 0 .2-.1.4-.2.1 0 .3-.1.4-.1h.4c.1 0 .3-.1.4-.1.1 0 .2-.1.4-.2.1 0 .3.1.4 0 .1 0 .3-.1.4-.2h.8c.1 0 .3-.1.4-.2h.4c.1 0 .2-.1.4-.1h.4c.1 0 .2-.1.4-.1h.8c.1 0 .3 0 .4-.1h.5c.1 0 .2-.1.3-.1.1 0 .3.1.4.1.1 0 .6.1.7.1.1 0 0-.2.1-.1.1 0 .3 0 .4.1.1 0 .3 0 .4.1h.8c.1 0 .3.1.4.1.2 0 .3 0 .4-.1.1-.1 0-.3 0-.4 0-.1.1-.3 0-.4 0-.1-.1-.3-.1-.4-.1-.1-.2-.2-.2-.4-.1-.1-.1-.3-.1-.4l-.3-.3-.3-.3c-.1-.1-.1-.3-.1-.4-.1-.1-.1-.3-.2-.4-.6 0-.7-.2-.7-.2 0-.1-.2-.2-.3-.3-.1-.1-.3-.1-.4-.2-.1-.1-.1-.3-.2-.4l-.3-.3-.3-.3c-.1-.1-.3-.1-.4-.2l-.3-.3c-.1-.1-.3-.1-.4-.2l-.3-.3-.3-.3c-.1-.1-.3-.1-.4-.2-.1-.1-.2-.2-.3-.2-.1-.1-.3 0-.4-.1-.1-.1-.2-.2-.4-.2-.1 0-.2-.1-.4-.2-.1 0-.3.1-.4 0-.1 0-.2-.1-.4-.2-.1 0-.2-.1-.4-.2-.1 0-.3 0-.4-.1-.1 0-.3-.1-.4-.1-.1 0-.3-.1-.4-.1h-.4c-.1 0-.3-.1-.4-.1-.1 0-.3-.1-.4-.1-.1 0-.3.1-.4.1-.1 0-.3 0-.4-.1-.1 0-.3-.2-.4-.2-.1 0-.3-.1-.4-.1-.1 0-.3.1-.4.1-.1 0-.3-.1-.4-.1-.1 0-.3-.2-.4-.2-.1 0-.3.1-.4.1h-.4c-.1 0-.3-.1-.4-.1-.1 0-.3.1-.4.1H34c-.1 0-.3-.1-.4 0-.1 0-.3.1-.4.1-.1 0-.3-.1-.4 0h-.4c-.1 0-.3 0-.4.1-.1 0-.3.1-.4.1-.1 0-.3 0-.4.1-.1 0-.3.1-.4.2h-.4c-.1 0-.3.1-.4.1-.1 0-.3-.1-.4 0-.1 0-.3.1-.4.1-.1 0-.2.2-.4.3-.1 0-.3 0-.4.1-.1 0-.3.1-.4.1h-.4c-.1 0-.3.1-.4.1-.1 0-.3.1-.4.2-.1 0-.3.1-.4.1-.1 0-.3.1-.4.1h-.4c-.4 0-.5.2-.6.2-.1.1-.3 0-.4.1l-.3.3c-.1.1-.3 0-.4.1-.1.1-.2.1-.4.2-.1.1-.2.1-.4.2-.1 0-.2.1-.3.2-.1.1-.3.1-.4.2-.1.1-.3.1-.4.2l-.3.3c-.1.1-.3.1-.4.2-.1-.1-.2 0-.3.1-.1.1-.3.1-.4.1-.1.1-.2.2-.3.2l-.3.3c-.1.1-.3.1-.4.2-.1.1-.1.3-.2.4-.1.1-.3 0-.4.1l-.3.3c-.1.1-.1.3-.3.3-.1.1-.2.2-.3.2-.1.1-.3.1-.4.2l-.3.3-.3.3c-.1.1-.2.2-.3.2-.1.1-.2.2-.3.2-.1.1-.1.2-.2.3l-.4.4c-.1.1-.2.1-.3.2-.1.1-.2.1-.3.2-.1.1-.1.3-.2.4l-.3.3c-.1.1-.3.1-.4.2l-.3.3c-.1.1-.1.3-.2.4l-.3.3-.3.3c-.1.1-.1.2-.2.3-.1.1-.1.3-.2.4l-.3.3c-.1.1-.1.2-.2.3l-.3.3-.3.3c-.1.1-.1.2-.2.3-.1.1-.2.1-.3.3-.1.1 0 .3-.1.4-.1.1-.3.1-.4.2-.1.1-.1.3-.1.4-.1.1-.3.1-.3.2-.1.1-.1.2-.2.3-.1.1 0 .3-.1.4-.1.1-.3.1-.4.2-.1.1-.1.2-.2.4-.3.2-.4.3-.5.4l-.3.3c-.1.1-.1.3-.1.4l-.3.3c-.1.1-.1.2-.2.3-.1.1 0 .3-.1.4-.1.2-.3.2-.3.4-.1.1 0 .3 0 .5-.1.1-.3.1-.4.3-.1.1 0 .3-.1.4l-.3.3c-.1.1 0 .3-.1.4-.1.1-.1.2-.2.4-.1.1-.2.2-.2.3-.1.1-.2.2-.2.3-.1.1-.2.2-.2.3-.1.1-.1.2-.2.4-.1.1-.1.3-.2.4-.1.1-.1.3-.1.4-.1.1-.1.3-.2.4-.1.1-.2.2-.2.3-.1.1-.1.2-.2.4l-.3.3c-.1.1 0 .3-.1.4-.1.1-.2.2-.2.4-.1.1-.1.3-.1.4-.1.1-.1.3-.1.4-.1.1-.1.2-.2.4l-.3.3v.4c0 .1 0 .3-.1.4 0 .1-.1.2-.2.4 0 .1-.2.2-.2.4 0 .1-.1.3-.1.4 0 .1 0 .3-.1.4 0 .1-.2.2-.2.4v.4c0 .1-.1.2-.2.4 0 .1-.1.3-.1.4 0 .1-.1.3-.1.4 0 .1 0 .3-.1.4 0 .1-.1.3-.1.4 0 .1-.1.3-.1.4 0 .1 0 .3-.1.4 0 .1-.2.2-.2.4 0 .1-.1.3-.1.4 0 .1.1.3.1.4 0 .1-.1.2-.2.4 0 .1-.1.3-.1.4 0 .1.1.3 0 .4 0 .1-.2.2-.2.4 0 .1.1.3.1.4 0 .1-.2.2-.2.4 0 .1-.1.3-.1.4v.4c0 .1-.1.3-.1.4v.4c0 .1-.1.3-.1.4.1 0 .2.1.2.3 0 .1-.1.3-.1.4v.4c0 .1-.2.3-.2.4v.4c0 .1-.1.3-.1.4v.4c0 .1.1.3.1.4 0 .1-.1.3-.1.4v.4c0 .1-.1.3-.1.4 0 .1.1.3.1.4 0 .1-.1.3-.1.4 0 .1.1.3.1.4 0 .1-.2.3-.2.4v.1c0 .1.2.2.2.4 0 .1-.1.2-.1.4v.8c0 .1-.1.3-.1.4v.4c0 .1.2.2.2.4v.4c0 .1.1.2.2.4 0 .1-.1.3 0 .4 0 .1.1.2.2.4 0 .1.2.2.2.3 0 .1.1.3.1.4 0 .1 0 .3.1.4.1.1.1.3.1.4.1.1.1.2.2.3l.3.3.3.3c.1.1.2.1.4.2h.4c.1 0 .3.1.4.1.1 0 .3-.1.4-.1.1 0 .3.1.4 0 .1.1.1.1.2.1h.3z"/></g><g fill="#fff"><path d="M18.5 110.2h-.1l-.5.3v.1c-.2.8-.5 1.4-1 2.3-2.2 3.1-5 5.7-8.4 7.9l-.2.1.9 1.3.2-.1c4.3-1.7 7.9-4.3 11.2-8 1.2.1 1.9 0 2.2-.3.2-.1.2-.3.2-.5-.1-.9-.9-1.4-4.5-3.1zM7 87.4l3.5-.3h7.9l-.1 4.3 3.1-.1.6-.6-.1-3.6h10.4l-.3 4.3 3.2-.1.6-.6-.1-3.6h13v-1.6l-3.3-3.3h-.9l-2.3 2.7h-6.4v-1.3c1.2-.3 1.8-.6 1.8-1.3 0-1-1.2-1.3-5.2-1.9h-.2l-.5.6.1.2c.3.8.4 1.6.4 3.2v.7H21.8v-1.3c1.2-.3 1.8-.6 1.8-1.3 0-1-1.2-1.3-5.1-1.9h-.2l-.5.6.1.2c.3.8.4 1.6.4 3.2v.7h-7.9L6.3 85h-.1l.8 2.4z"/><path d="M29.5 92.3c.5 0 .8-.1 1-.3.2-.2.2-.4.2-.6 0-.9-.9-1.4-5.1-3l-.1-.1-.6.3v.1c-.3 1.1-.7 2-1.7 3.4-4.4 6-10.5 10.7-18.1 14l-.3.1.8 1.5.2-.1c9.3-2.9 16.1-7.6 21.6-14.8 4.9 6.4 10.7 10.9 18.3 14l.3.2.1-.3c.6-1.6 1.2-2.1 2.7-2.2h.3l.1-1.6-.3-.1c-8.2-1.8-14.2-5.1-19.4-10.5z"/><path d="M29 108.2h12.3v-1.6l-3.1-2.9-.1-.1h-.9l-2 2.3H29v-4c1.2-.3 1.9-.7 1.9-1.4 0-.9-1.1-1.2-5.4-2h-.2l-.5.6.1.2c.4 1.1.5 1.9.5 3.5v3.2H17l-4.1-.3h-.1l.7 2.7v.1l3.5-.3h8.4v7.6l-.2 7.9v.1l3.4-.1.6-.6-.2-7.7v-7.2z"/><path d="M33.4 110.4l-.2-.1-1 1.3.3.2c3 2.1 5.5 4.5 7 6.8s2 2.9 2.9 2.9c1.2 0 1.9-.8 1.9-2.2.1-3-4.1-6.5-10.9-8.9zM40.7 183.6l-.2-.1c-1-.8-1.7-1.2-2.1-1.2-.3 0-.7.2-1.4.7-.6.5-.8.6-1.7.7h-.1c-2 .2-4.1.3-6.1.5.2-.7.5-1.5.7-2.2l.3-.8c.3-.9.5-1.2 1-1.6.5-.4.7-.8.7-1.3 0-.6-.6-1.3-1.8-2.2-1.3-.9-2.8-1.4-4.1-1.4-.5 0-.9 0-1.4.1h-.2l-.3 1.5.3.1c1.9.5 2.3 1.2 2.3 2.2 0 .5-.1 1.2-.2 1.7-.3 1.7-.7 3-1 4.3-.9.1-1.8.2-2.6.3h-.2c-1.1.1-2.2.3-3.2.4-1 .1-1.7.2-2.3.2-1 0-1.9-.4-3.4-2.5l-.2-.2-1.4.8v.2c.3 1.7 1.2 3.3 1.9 4.2.7.9 1.4 1.4 2.1 1.4.4 0 .9-.2 1.4-.5.3-.2.7-.3 1.7-.6 1.7-.3 3.4-.6 5.2-.9-1.6 4.5-3.5 8.2-5.8 11.3-2.5 3.4-5.7 6.3-9.6 8.7l-.3.2 1.1 1.4.2-.1c4.4-1.6 8.1-4.3 11.2-8.2 2.9-3.6 5.2-8.1 7.1-13.8 2.3-.2 4.1-.4 5.9-.5.9-.1 2.3-.2 3-.2h.2v.1c0 .4-.1 1-.2 1.6-1.1 5.7-2.3 10.1-4 13.8-1.2 2.7-1.9 2.9-2.6 2.9-.4 0-.9 0-1.7-.3-.3-.1-.7-.2-1-.3h-.1c-.8-.3-1.8-.6-2.9-.8l-.3-.1-.6 1.5.2.1c.5.3 1 .5 1.4.8l2.1 1.2c.8.6 1.1.9 1.3 1.8.1.8.4 1.6 1.5 1.6.8 0 1.9-.6 2.8-1.5 1.1-1.1 2.2-3 3.2-5.6 1.7-4.2 2.9-8.6 4-14.4.3-1.1.4-1.4.9-1.6.6-.3 1.1-.6 1.1-1.3.1-.6-.6-1.1-1.8-2.1z"/><g><path d="M44 140.2c-1.3-1-2.5-1.4-4.3-1.4h-.2l-.5 1.4.3.1c1.1.4 1.7.9 1.7 1.4 0 .2-.1.6-.3 1.3-1.2 3.8-3.2 7.4-5.5 10.1-2.1 2.4-4.7 4.3-8.3 6.3l-.3.2 1 1.4.2-.1c4-1.2 6.9-3 9.6-5.7 2.6-2.7 4.9-6.5 6.5-10.8.3-.7.5-.9.8-1.1.4-.2.7-.6.7-1.1-.1-.7-.6-1.3-1.4-2zM27.4 145.3c-.3-2.2-2-3.8-3.5-4.1-.3-.1-.9-.2-1.3 0-.5.2-.6.5-.6.7 0 .2.1.5.6.7.5.2.9.5 1.2 1 .3.5.5 1.1.7 1.8l.1.2c.1.4.3.8.5 1 .3.4.7.6 1.2.7.3 0 .6-.1.8-.4.2-.5.4-1 .3-1.6zM30.5 141.6c.5.2.9.5 1.2 1 .3.5.5 1.1.7 1.8l.1.2c.1.4.3.8.5 1 .3.4.7.6 1.2.7.3 0 .6-.1.8-.4.3-.4.5-.9.4-1.5-.3-2.2-2-3.8-3.5-4.1-.3-.1-.9-.2-1.3 0-.5.2-.6.5-.6.7-.1.1 0 .4.5.6z"/></g><g><path d="M40.5 226c-1.5-1.4-3-2.1-4.4-2.1-.4 0-.8 0-1.2.1h-.3l-.6 1.4.3.1c2 .9 2.4 1.5 2.4 2.4 0 .6-.1 1.3-.4 2.2-2 5.9-4.4 10.5-7.4 14.2-3.2 3.9-7 6.6-12.7 9.1l-.3.1.8 1.5v.1l.2-.1c6-1.4 10.8-4.2 14.7-8.5 3.3-3.7 6-8.5 8.4-15 .3-.9.5-1 1.3-1.5.6-.3.9-.7.9-1.4.1-.6-.8-1.8-1.7-2.6zM16.2 234.5c.2.7.6 1.5.9 1.9.5.7 1.1 1 2 1.1.4 0 .7-.2 1-.5.5-.6.8-1.5.7-2.5-.6-4.7-4.2-8-7.3-8.6-.4-.1-1.8-.4-2.5-.1-.3.1-.6.2-.6.5s.4.5.6.6c1.4.6 2.6 1.5 3.4 2.7.9 1.3 1.3 2.9 1.8 4.5v.4z"/></g><g><path d="M43.9 271.2l-.2.3c-2.7 3.7-5.8 7.2-9.1 10.4-4.2 4-8.7 7.4-14.2 10.9-1.5.9-2 1-2.4 1-.9 0-1.9-.7-3.1-2.3l-.2-.2-1.2.9v.2c.2 1.8 1.1 3.3 2.5 4.7.6.6 2 1.9 3.1 1.9.7 0 1.1-.3 1.6-1 .4-.6.7-1 2.3-2.1 5.7-4 10.4-7.9 13.9-11.5 3.4-3.6 6-7.2 8.4-11.7l.1-.2-1.5-1.3zM19.4 276l.3.4c.5.6 1.2 1.1 1.6 1.4.4.2.8.4 1.3.4.3 0 .7-.1 1-.2.3-.1.6-.4.7-.9.2-.7.1-1.7-.4-2.6-2.4-4.1-7.1-5.5-10.2-4.9-.5.1-1.8.4-2.3.9-.2.2-.5.5-.4.7.1.3.5.3.8.3 1.5-.1 2.9.3 4.2 1.1 1.3.8 2.4 2.1 3.4 3.4z"/></g></g></svg>