<svg version="1.1" xmlns="http://www.w3.org/2000/svg" xmlns:xlink="http://www.w3.org/1999/xlink" x="0px" y="0px" viewBox="0 0 62 582" style="enable-background:new 0 0 62 582;" xml:space="preserve">
<g>
	<polygon fill="#365a9d" points="1.5,17.6 1.5,25.6 54.3,25.6 54.3,42.1 60.8,44.4 60.8,0.5 54.3,0.5 54.3,17.6 	"/>
	<polygon fill="#365a9d" points="1.5,66.7 1.5,97 8.1,97 8.1,74.7 28.5,74.7 28.5,94 35.2,94 35.2,74.7 54.3,74.7 54.3,94.3 60.8,96.6 60.8,66.7"/>
	<path fill="#365a9d" d="M1.5,117.9v8.4l15.6,5.7v22.9l-15.6,5.8v8.5l59.5-23v-5.7L1.5,117.9z M23.7,134.4l15.4,5.6c5,1.8,7.8,2.8,10,3.4v0.2 c-2.2,0.7-4.9,1.6-9.9,3.3l-15.5,5.6V134.4z"/>
</g>
<g>
	<path fill="#365a9d" d="M1.5,227v16.6c0,13.3,7.3,20.3,17,20.3c7.3,0,12.9-4.7,14.4-11.4h0.2c2.2,4.8,6.9,7.6,12.7,7.6c8,0,15-5.7,15-18.3V227H1.5
		z M8.2,235h20.2v9.1c0,7.1-3.9,11.7-10,11.7c-7.3,0-10.3-4.9-10.3-12.6V235z M35.1,235h19.1v6.2c0,7.7-4,11-9.4,11
		c-5.9,0-9.6-3.9-9.6-11.2V235z"/>
	<path fill="#365a9d" d="M1.5,290.4v8h24.6v6.1c-0.4,1.7-3.1,4-8.1,6.7L1.5,321v9.4l17.6-10.5c5.3-3.1,8.5-5.4,9.5-7.2h0.2
		c2.2,7.4,7.4,11.9,15.6,11.9c5.4,0,10.5-2.2,13.5-7.6c1.8-3.1,2.9-7.1,2.9-13.1v-13.4H1.5z M32.7,298.4h21.6v5.4
		c0,4.2-1.1,6.8-2.4,8.6c-1.9,2.5-4.8,3.8-8.2,3.8c-4.3,0-7.5-1.9-9.1-4.9c-1.3-2.2-1.9-4.5-1.9-7.6V298.4z"/>
	<rect fill="#365a9d" x="1.5" y="354.9" width="59.3" height="8"/>
	<path fill="#365a9d" d="M1.5,392.4v8h37.1c4.2,0,7.1-0.1,9.9-0.3v0.2c-3,2.1-6.4,4.5-10.7,7.8L1.5,435.9v7h59.3v-8H25.2c-4.2,0-7.1,0-10.3,0.2V435
		c3-2,6.6-4.5,11.1-8l34.9-26.8v-7.7H1.5z"/>
	<path fill="#365a9d" d="M29.8,519.6v-7.9H9.6c-1.3-2.6-2.2-6.7-2.2-11.3c0-13.7,9.1-22.2,23.5-22.2c13.9,0,23.6,8.4,23.6,23.3
		c0,6.4-1.6,11.7-3.8,16h7.5c1.5-3.8,3.1-9.6,3.1-16.5c0-18.8-13-31.3-31.1-31.3c-17.3,0-29.6,11.6-29.6,29.9
		c0,8.2,2.3,15.7,4.6,20.1H29.8z"/>
	<path fill="#365a9d" d="M5.3,545.4c-2.6,3.9-4.7,9.5-4.7,16.4c0,11.6,6.1,19.7,16.2,19.7c18.5,0,17.2-26,29.8-26c5.8,0,7.9,4.9,7.9,9.9
		c0,4.6-1.2,9.1-3.3,13.1h7.3c1.4-2.9,2.9-7.8,2.9-13.4c0-11.4-7-18-15.6-18C28,547.1,29.6,573,16.2,573c-6.4,0-8.7-5.4-8.7-11.2
		c0-5.5,2-10,4-13L5.3,545.4z"/>
</g>
</svg>
