<svg version="1.1" xmlns="http://www.w3.org/2000/svg" xmlns:xlink="http://www.w3.org/1999/xlink" x="0px" y="0px" viewBox="0 0 62 368" style="enable-background:new 0 0 62 368;" xml:space="preserve">
<path fill="#365a9d" d="M1.5,0.2v8h24.6v6.1c-0.4,1.7-3.1,4-8.1,6.7L1.5,30.8v9.4l17.6-10.5c5.3-3.1,8.5-5.4,9.5-7.2h0.2
	c2.2,7.4,7.4,11.9,15.6,11.9c5.4,0,10.5-2.2,13.5-7.6c1.8-3.1,2.9-7.1,2.9-13.1V0.2H1.5z M32.7,8.2h21.6v5.4c0,4.2-1.1,6.8-2.4,8.6
	c-1.9,2.5-4.8,3.8-8.2,3.8c-4.3,0-7.5-1.9-9.1-4.9c-1.3-2.2-1.9-4.5-1.9-7.6V8.2z"/>
<polygon fill="#365a9d" points="1.5,64.7 1.5,95 8.1,95 8.1,72.7 28.5,72.7 28.5,92 35.2,92 35.2,72.7 54.3,72.7 54.3,92.3 60.8,94.6 60.8,64.7 "/>
<path fill="#365a9d" d="M1.5,122.2v8h21.4v3.4c0,5.3,0.8,9.2,2.2,12.3c3.3,7.4,9.9,10.3,16.7,10.3c7.6,0,13.2-3.3,16.3-8.9c1.8-3.2,2.7-7.3,2.7-13
	v-12.1H1.5z M29.5,130.2h24.7v4c0,3.8-0.7,6.4-1.9,8.4c-2.1,3.5-5.8,5.3-10.5,5.3c-5,0-8.7-1.8-10.7-5.7c-1-1.9-1.6-4.5-1.6-8.1
	V130.2z"/>
<path fill="#365a9d" d="M0.6,209.5c0,16.6,11.9,29.2,30.3,29.2c17.7,0,30.4-12.1,30.4-29.2c0-16.9-12.4-29.2-30.4-29.2
	C12.6,180.2,0.6,192.6,0.6,209.5z M7.5,209.5c0-12.5,9.2-20.8,23.5-20.8c14.2,0,23.6,8.3,23.6,20.8c0,13.1-10,20.7-23.6,20.7
	C16.6,230.2,7.5,222,7.5,209.5z"/>
<path fill="#365a9d" d="M1.5,265.4v8h24.6v6.1c-0.4,1.7-3.1,4-8.1,6.7L1.5,296v9.4l17.6-10.5c5.3-3.1,8.5-5.4,9.5-7.2h0.2
	c2.2,7.4,7.4,11.9,15.6,11.9c5.4,0,10.5-2.2,13.5-7.6c1.8-3.1,2.9-7.1,2.9-13.1v-13.4H1.5z M32.7,273.5h21.6v5.4
	c0,4.2-1.1,6.8-2.4,8.6c-1.9,2.5-4.8,3.8-8.2,3.8c-4.3,0-7.5-1.9-9.1-4.9c-1.3-2.2-1.9-4.5-1.9-7.6V273.5z"/>
<polygon fill="#365a9d" points="1.5,341 1.5,349.1 54.3,349.1 54.3,365.5 60.8,367.8 60.8,323.9 54.3,323.9 54.3,341 "/>
</svg>
