<svg version="1.1" xmlns="http://www.w3.org/2000/svg" xmlns:xlink="http://www.w3.org/1999/xlink" x="0px" y="0px" viewBox="0 0 92 328" style="enable-background:new 0 0 92 328;" xml:space="preserve">
<path fill="#365a9d" d="M17,0.5v8h37.1c4.2,0,7.1-0.1,9.9-0.3v0.2c-3,2.1-6.4,4.5-10.7,7.8L17,44.1v7h59.3v-8H40.6c-4.2,0-7.1,0-10.3,0.2v-0.2
	c3-2,6.6-4.5,11.1-8L76.3,8.3V0.5H17z"/>
<polygon fill="#365a9d" points="17,80.5 17,110.9 23.5,110.9 23.5,88.5 44,88.5 44,107.9 50.6,107.9 50.6,88.5 69.7,88.5 69.7,108.2 76.3,110.5 
	76.3,80.5 "/>
<path fill="#365a9d" d="M16.6,152v6.6l27,9.4c4.7,1.6,7.9,2.8,11.9,3.9v0.3c-4,1.1-7.5,2.3-11.9,3.9l-27,9.3v6.6l59.7,19.7v-8.4L41,192.3
	c-4-1.3-7.6-2.3-12.1-3.4v-0.2c4.2-1.1,8.6-2.7,12.2-3.9L76.3,173v-8.4l-10.2,3.5L41,159.6c-4-1.4-7.6-2.6-12.1-3.9v-0.3
	c4.2-1.1,8.5-2.4,12.1-3.6l35.2-11.2v-9L16.6,152z"/>
<path fill="#365a9d" d="M0.6,248.6l4,5.3c11.1-8.2,21.3-11.7,41.4-11.7s30.3,3.5,41.6,11.8l3.9-5.4C78,237,62.3,234,46,234
	C29.6,234,13.9,237,0.6,248.6z"/>
<path fill="#365a9d" d="M4.6,307.5l-4,5.4c13.3,11.6,29,14.6,45.4,14.6c16.4,0,32-3,45.4-14.7l-3.9-5.3C76.3,315.7,66,319.3,46,319.3
	S15.6,315.7,4.6,307.5z"/>
</svg>
