<svg xmlns="http://www.w3.org/2000/svg" viewBox="0 0 62 620"><path fill="#365a9d" d="M11.3 44.1C9.1 40 7.4 35.5 7.4 29.9c0-13 9.6-21.2 23.4-21.2 13.2 0 23.7 8.1 23.7 21.8 0 5.9-1.5 10.5-3.8 14.8h7.5c1.7-3.1 3.1-8.5 3.1-14.9C61.3 12.4 47.6.3 30.4.3 13.1.1.6 10.8.6 29c0 5.5 1.2 11.3 4.3 17.3l6.4-2.2zM1.5 71.5v8h26.9v31.4H1.5v7.9h59.3v-7.9H35.3V79.5h25.5v-8zM11.3 189.5c-2.2-4.1-3.9-8.6-3.9-14.2 0-13 9.6-21.2 23.4-21.2 13.2 0 23.7 8.1 23.7 21.8 0 5.9-1.5 10.5-3.8 14.8h7.5c1.7-3.1 3.1-8.5 3.1-14.9 0-18-13.7-30.1-30.9-30.1C13 145.7.5 156.3.5 174.6c0 5.5 1.2 11.3 4.3 17.3l6.5-2.4zM1.5 216.9v8.1h26.8v.1L1.5 248v9.9L31.7 232l29.1 24.3v-9.4l-26.5-21.8v-.1h26.5v-8.1zM1.5 275.2v8.4l15.6 5.7v22.9L1.5 318v8.5l59.5-23v-5.7L1.5 275.2zm22.2 16.4l15.4 5.6c5 1.8 7.8 2.8 10 3.4v.2c-2.2.7-4.9 1.6-9.9 3.3l-15.5 5.6v-18.1zM1.5 360.9v8h52.8v16.5l6.5 2.3v-43.9h-6.5v17.1zM1.5 410v8h26.9v31.4H1.5v7.9h59.3v-7.9H35.3V418h25.5v-8zM.6 513.3c0 16.6 11.9 29.2 30.3 29.2 17.7 0 30.4-12.1 30.4-29.2 0-16.9-12.4-29.2-30.4-29.2-18.3 0-30.3 12.4-30.3 29.2zm6.9 0c0-12.5 9.2-20.8 23.5-20.8 14.2 0 23.6 8.3 23.6 20.8 0 13.1-10 20.7-23.6 20.7-14.4 0-23.5-8.2-23.5-20.7zM1.5 569.3v8h37.1c4.2 0 7.1-.1 9.9-.3v.2c-3 2.1-6.4 4.5-10.7 7.8L1.5 612.8v7h59.3v-8H25.2c-4.2 0-7.1 0-10.3.2v-.2c3-2 6.6-4.5 11.1-8L60.8 577v-7.7H1.5z"/></svg>