<svg version="1.1" xmlns="http://www.w3.org/2000/svg" xmlns:xlink="http://www.w3.org/1999/xlink" width="14" height="15" x="0px" y="0px" viewBox="0 0 14 15" style="enable-background:new 0 0 14 15;" xml:space="preserve">
<g>
	<path fill="#ffffff" class="st0" d="M10.5,0.218C8.781,0.02,7,0,7,0S5.219,0.02,3.5,0.218S0,1.071,0,1.071s1.781,0.657,3.5,0.854S7,2.143,7,2.143
		s1.781-0.02,3.5-0.218S14,1.071,14,1.071S12.219,0.415,10.5,0.218z"/>
	<path fill="#ffffff" class="st0" d="M10.5,2.36C8.781,2.163,7,2.143,7,2.143S5.219,2.163,3.5,2.36C1.781,2.558,0,3.214,0,3.214
		s1.781,0.657,3.5,0.854S7,4.286,7,4.286s1.781-0.02,3.5-0.218S14,3.214,14,3.214S12.219,2.558,10.5,2.36z"/>
	<path fill="#ffffff" class="st0" d="M10.5,4.503C8.781,4.306,7,4.286,7,4.286s-1.781,0.02-3.5,0.218C1.781,4.701,0,5.357,0,5.357
		s1.781,0.657,3.5,0.854S7,6.429,7,6.429s1.781-0.02,3.5-0.218S14,5.357,14,5.357S12.219,4.701,10.5,4.503z"/>
	<path fill="#ffffff" class="st0" d="M10.5,6.646C8.781,6.449,7,6.429,7,6.429s-1.781,0.02-3.5,0.218S0,7.5,0,7.5s1.781,0.657,3.5,0.854
		C5.219,8.551,7,8.571,7,8.571s1.781-0.02,3.5-0.218C12.219,8.157,14,7.5,14,7.5S12.219,6.843,10.5,6.646z"/>
	<path fill="#ffffff" class="st0" d="M10.5,8.789C8.781,8.592,7,8.571,7,8.571s-1.781,0.02-3.5,0.218S0,9.643,0,9.643s1.781,0.657,3.5,0.854
		S7,10.714,7,10.714s1.781-0.02,3.5-0.218S14,9.643,14,9.643S12.219,8.986,10.5,8.789z"/>
	<path fill="#ffffff" class="st0" d="M10.5,10.932C8.781,10.735,7,10.714,7,10.714s-1.781,0.02-3.5,0.218C1.781,11.129,0,11.786,0,11.786
		s1.781,0.657,3.5,0.854S7,12.857,7,12.857s1.781-0.02,3.5-0.218s3.5-0.854,3.5-0.854S12.219,11.129,10.5,10.932z"/>
	<path fill="#ffffff" class="st0" d="M10.5,13.075C8.781,12.878,7,12.857,7,12.857s-1.781,0.02-3.5,0.218S0,13.929,0,13.929s1.781,0.657,3.5,0.854
		S7,15,7,15s1.781-0.02,3.5-0.218s3.5-0.854,3.5-0.854S12.219,13.272,10.5,13.075z"/>
</g>
</svg>
