<svg version="1.1" xmlns="http://www.w3.org/2000/svg" xmlns:xlink="http://www.w3.org/1999/xlink" width="100" height="18" x="0px" y="0px" viewBox="0 0 100 18" style="enable-background:new 0 0 100 18;" xml:space="preserve">
<path fill="#365a9d" d="M1,16.9h2.1v-6.6h1.6c0.5,0.1,1.1,0.8,1.8,2.2l2.6,4.4h2.5l-2.8-4.7C8,10.7,7.4,9.9,6.9,9.6v0c2-0.6,3.2-2,3.2-4.2 c0-1.4-0.6-2.8-2-3.6C7.3,1.3,6.2,1,4.6,1H1V16.9z M3.1,8.6V2.8h1.4c1.1,0,1.8,0.3,2.3,0.6c0.7,0.5,1,1.3,1,2.2c0,1.2-0.5,2-1.3,2.4 C6,8.4,5.4,8.6,4.5,8.6H3.1z"/>
<polygon fill="#365a9d" points="18.1,16.9 26.2,16.9 26.2,15.1 20.2,15.1 20.2,9.7 25.4,9.7 25.4,7.9 20.2,7.9 20.2,2.8 25.4,2.8 26.1,1 18.1,1 "/>
<path fill="#365a9d" d="M33.9,16.9H36v-5.7H37c1.4,0,2.4-0.2,3.3-0.6c2-0.9,2.8-2.6,2.8-4.5c0-2-0.9-3.5-2.4-4.3C39.8,1.3,38.7,1,37.2,1h-3.2V16.9z M36,9.4V2.8h1.1c1,0,1.7,0.2,2.2,0.5c0.9,0.6,1.4,1.6,1.4,2.8c0,1.3-0.5,2.3-1.5,2.9c-0.5,0.3-1.2,0.4-2.2,0.4H36z"/>
<path fill="#365a9d" d="M56.8,17.1c4.4,0,7.8-3.2,7.8-8.1c0-4.7-3.2-8.1-7.8-8.1C52.3,0.9,49,4.2,49,9C49,13.9,52.3,17.1,56.8,17.1z M56.8,15.3 c-3.3,0-5.5-2.4-5.5-6.3c0-3.8,2.2-6.3,5.5-6.3c3.5,0,5.5,2.7,5.5,6.3C62.3,12.8,60.1,15.3,56.8,15.3z"/>
<path fill="#365a9d" d="M71.7,16.9h2.1v-6.6h1.6c0.5,0.1,1.1,0.8,1.8,2.2l2.6,4.4h2.5l-2.8-4.7c-0.8-1.4-1.4-2.3-1.9-2.5v0c2-0.6,3.2-2,3.2-4.2 c0-1.4-0.6-2.8-2-3.6C78,1.3,76.9,1,75.3,1h-3.6V16.9z M73.9,8.6V2.8h1.4c1.1,0,1.8,0.3,2.3,0.6c0.7,0.5,1,1.3,1,2.2 c0,1.2-0.5,2-1.3,2.4c-0.6,0.3-1.2,0.5-2,0.5H73.9z"/>
<polygon fill="#365a9d" points="91.9,16.9 94,16.9 94,2.8 98.4,2.8 99,1 87.3,1 87.3,2.8 91.9,2.8 "/>
</svg>