<svg xmlns="http://www.w3.org/2000/svg" viewBox="0 0 126 18"><path fill="#365a9d" d="M12.2 14.2c-1.1.6-2.3 1-3.8 1-3.5 0-5.7-2.6-5.7-6.2 0-3.5 2.2-6.3 5.8-6.3 1.6 0 2.8.4 3.9 1v-2c-.8-.5-2.3-.8-4-.8-4.8 0-8 3.6-8 8.2s2.8 8 7.7 8c1.5 0 3-.3 4.6-1.2l-.5-1.7zM26.6 17.1c4.4 0 7.8-3.2 7.8-8.1 0-4.7-3.2-8.1-7.8-8.1-4.5 0-7.8 3.3-7.8 8.1 0 4.9 3.3 8.1 7.8 8.1zm0-1.8c-3.3 0-5.5-2.4-5.5-6.3 0-3.8 2.2-6.3 5.5-6.3 3.5 0 5.5 2.7 5.5 6.3 0 3.8-2.2 6.3-5.5 6.3zM41.5 16.9h2.1V7c0-1.1 0-1.9-.1-2.6.6.8 1.2 1.7 2.1 2.9L53 17h2V1h-2.1v12.3c-.5-.8-1.2-1.8-2.1-3L43.6 1h-2.1v15.9zM65.8 16.9H68V2.8h4.3l.6-1.8H61.3v1.8h4.5zM77.2 16.9h2.2l1.5-4.2H87l1.6 4.2h2.3L84.8 1h-1.5l-6.1 15.9zm4.4-5.9l1.5-4.1c.5-1.3.7-2.1.9-2.7.2.6.4 1.3.9 2.6l1.5 4.1h-4.8zM108.1 14.2c-1.1.6-2.3 1-3.8 1-3.5 0-5.7-2.6-5.7-6.2 0-3.5 2.2-6.3 5.8-6.3 1.6 0 2.8.4 3.9 1v-2c-.8-.5-2.3-.8-4-.8-4.8 0-8 3.6-8 8.2s2.8 8 7.7 8c1.5 0 3-.3 4.6-1.2l-.5-1.7zM118.4 16.9h2.1V2.8h4.4l.6-1.8h-11.7v1.8h4.6z"/></svg>