<svg xmlns="http://www.w3.org/2000/svg" viewBox="0 0 90 18"><path fill="#365a9d" d="M.6 16.9h2.2l1.5-4.2h6.1l1.6 4.2h2.3L8.2 1H6.7L.6 16.9zM5 11l1.5-4.1c.5-1.4.8-2.1.9-2.7.2.6.4 1.3.9 2.6L9.9 11H5zM20.5 16.9H25c3.6 0 5.4-1.9 5.4-4.5 0-1.9-1.2-3.4-3-3.8 1.3-.6 2-1.8 2-3.4 0-2.1-1.5-4-4.9-4h-4v15.7zm2.2-1.8V9.7h2.4c1.9 0 3.1 1 3.1 2.7 0 1.9-1.3 2.7-3.4 2.7h-2.1zm0-7.2V2.8h1.7c2.1 0 2.9 1.1 2.9 2.5 0 1.6-1 2.6-3 2.6h-1.6zM44.5 17.1c4.4 0 7.8-3.2 7.8-8.1 0-4.7-3.2-8.1-7.8-8.1-4.5 0-7.8 3.3-7.8 8.1 0 4.9 3.3 8.1 7.8 8.1zm0-1.8c-3.3 0-5.5-2.4-5.5-6.3 0-3.8 2.2-6.3 5.5-6.3C48 2.7 50 5.4 50 9c0 3.8-2.2 6.3-5.5 6.3zM65.4 17.1c2.8 0 4.8-1.1 5.6-3.2.3-.8.5-1.7.5-2.8V1h-2.1v9.8c0 .9-.1 1.6-.4 2.2-.6 1.4-1.8 2.2-3.6 2.2s-3-.8-3.6-2.2c-.3-.6-.4-1.3-.4-2.2V1h-2.1v10.1c0 1 .1 1.9.4 2.7.9 2.2 2.8 3.3 5.7 3.3zM82.2 16.9h2.2V2.8h4.4l.6-1.8H77.7v1.8h4.5z"/></svg>