<svg xmlns="http://www.w3.org/2000/svg" viewBox="0 0 220 62"><g fill="#0d7a79"><path d="M1.1 50.3h5.3V25.6c0-2.8-.1-4.7-.2-6.6h.1c1.4 2 3 4.3 5.2 7.1L30 50.3h4.7V10.8h-5.3v23.8c0 2.8 0 4.7.1 6.9h-.1c-1.3-2-3-4.4-5.3-7.4L6.2 10.8H1.1v39.5zM54.4 50.3h20.2V46H59.7V32.3h12.9v-4.4H59.7V15.2h13.1l1.6-4.4h-20zM102 50.6h4.4l6.3-18c1.1-3.1 1.9-5.3 2.6-7.9h.2c.7 2.6 1.6 5 2.6 7.9l6.2 18h4.4l13.1-39.8h-5.6l-7.3 23.5c-.8 2.6-1.6 5.1-2.3 8h-.1c-.7-2.8-1.8-5.8-2.6-8.2L116 10.7h-5.6l2.3 6.8-5.7 16.7c-1 2.6-1.7 5.1-2.6 8h-.2c-.7-2.8-1.6-5.7-2.4-8.1l-7.5-23.5h-6l13.7 40z"/></g><g fill="#0d7a79"><path d="M166.5 61.3l3.5-2.6c-5.5-7.4-7.8-14.2-7.8-27.6 0-13.4 2.3-20.2 7.9-27.7L166.5.8c-7.7 8.9-9.8 19.4-9.8 30.3 0 10.8 2 21.3 9.8 30.2zM205.7 58.6l3.6 2.6C217 52.3 219 41.9 219 31c0-10.9-2-21.4-9.8-30.3l-3.5 2.6c5.5 7.5 7.9 14.3 7.9 27.7 0 13.4-2.4 20.2-7.9 27.6z"/></g></svg>