<svg xmlns="http://www.w3.org/2000/svg" viewBox="0 0 278 62"><path fill="#0d7a79" d="M1.9 50.3H13c8.9 0 13.6-4.9 13.6-11.3 0-4.9-3.1-8.6-7.6-9.6v-.1c3.2-1.4 5.1-4.6 5.1-8.5 0-5.3-3.8-10-12.2-10h-10v39.5zm5.4-4.4V32.4h6.1c4.7 0 7.8 2.6 7.8 6.7 0 4.9-3.2 6.8-8.4 6.8H7.3zm0-17.9V15.3h4.1c5.2 0 7.3 2.6 7.3 6.3 0 4-2.6 6.4-7.4 6.4h-4zM44.2 50.3h5.3V34h4.1c1.1.3 2.6 2.1 4.5 5.4l6.5 11h6.2l-7-11.8c-2.1-3.5-3.6-5.7-4.8-6.4v-.1c5-1.5 8-4.9 8-10.4 0-3.6-1.5-7-5-9-2-1.2-4.7-1.9-8.8-1.9h-8.9v39.5zm5.4-20.7V15.2h3.6c2.8 0 4.6.7 5.8 1.6 1.7 1.3 2.5 3.2 2.5 5.5 0 2.9-1.3 5-3.2 6.1-1.4.8-3 1.3-5.1 1.3h-3.6zM87.2 10.8h5.3v39.5h-5.3zM112.2 50.3h5.3V25.6c0-2.8-.1-4.7-.2-6.6h.1c1.4 2 3 4.3 5.2 7.1l18.5 24.2h4.7V10.8h-5.3v23.8c0 2.8 0 4.7.1 6.9h-.1c-1.3-2-3-4.4-5.3-7.4l-17.9-23.3h-5.2v39.5zM197 31.5h-5.3v13.4c-1.7.8-4.5 1.4-7.6 1.4-9.1 0-14.8-6.1-14.8-15.7 0-9.2 5.6-15.7 15.5-15.7 4.3 0 7.8 1.1 10.7 2.5v-5c-2.5-1-6.4-2.1-11-2.1-12.5 0-20.9 8.6-20.9 20.8 0 11.5 7.7 19.7 19.9 19.7 5.5 0 10.4-1.6 13.4-3.1V31.5zM214.2 47.8c2.6 1.7 6.4 3.1 10.9 3.1 7.7 0 13.1-4.1 13.1-10.8 0-12.4-17.3-11.5-17.3-19.9 0-3.9 3.3-5.3 6.6-5.3 3.1 0 6.1.8 8.8 2.2v-4.9c-1.9-1-5.2-1.9-8.9-1.9-7.6 0-12 4.7-12 10.4 0 11.9 17.3 10.8 17.3 19.7 0 4.3-3.6 5.8-7.5 5.8-3.7 0-6.7-1.3-8.7-2.7l-2.3 4.3z"/></svg>