<svg version="1.1" xmlns="http://www.w3.org/2000/svg" xmlns:xlink="http://www.w3.org/1999/xlink" x="0px" y="0px" viewBox="0 0 190 18" style="enable-background:new 0 0 190 18;" xml:space="preserve">
<rect fill="#365a9d" x="0.9" y="1" width="2.1" height="15.8"/>
<path fill="#365a9d" d="M10.9,16.9h2.1V7c0-1.1,0-1.9-0.1-2.6h0c0.6,0.8,1.2,1.7,2.1,2.9l7.4,9.7h1.9V1h-2.1v9.5c0,1.1,0,1.9,0,2.8h0
	c-0.5-0.8-1.2-1.8-2.1-3L13,1h-2.1V16.9z"/>
<polygon fill="#365a9d" points="32.3,16.9 34.4,16.9 34.4,9.7 39.5,9.7 39.5,7.9 34.4,7.9 34.4,2.8 39.7,2.8 40.3,1 32.3,1 "/>
<path fill="#365a9d" d="M54.1,17.1c4.4,0,7.8-3.2,7.8-8.1c0-4.7-3.2-8.1-7.8-8.1c-4.5,0-7.8,3.3-7.8,8.1C46.3,13.9,49.7,17.1,54.1,17.1z M54.1,15.3
	c-3.3,0-5.5-2.4-5.5-6.3c0-3.8,2.2-6.3,5.5-6.3c3.5,0,5.5,2.7,5.5,6.3C59.7,12.8,57.5,15.3,54.1,15.3z"/>
<path fill="#365a9d" d="M69.1,16.9h2.1v-6.6h1.6c0.5,0.1,1.1,0.8,1.8,2.2l2.6,4.4h2.5l-2.8-4.7c-0.8-1.4-1.4-2.3-1.9-2.5v0c2-0.6,3.2-2,3.2-4.2
	c0-1.4-0.6-2.8-2-3.6C75.3,1.3,74.3,1,72.6,1h-3.6V16.9z M71.2,8.6V2.8h1.4c1.1,0,1.8,0.3,2.3,0.6c0.7,0.5,1,1.3,1,2.2
	c0,1.2-0.5,2-1.3,2.4c-0.6,0.3-1.2,0.5-2,0.5H71.2z"/>
<path fill="#365a9d" d="M86.3,16.9h2.1V7c0-0.7,0-1.7,0-2.4h0c0.3,0.6,0.7,1.2,1.1,1.7l4,5.9h1.1l3.6-5.8C98.5,6,99,5.2,99.3,4.6h0
	c0,0.8,0,1.8,0,2.5v9.8h2.1V1h-2l-4,6.3c-0.6,1-1,1.7-1.4,2.3h0c-0.4-0.6-0.8-1.2-1.4-2.2L88.2,1h-2V16.9z"/>
<path fill="#365a9d" d="M107.6,16.9h2.2l1.5-4.2h6.1l1.6,4.2h2.3L115.2,1h-1.5L107.6,16.9z M112,11l1.5-4.1c0.5-1.3,0.7-2.1,0.9-2.7h0
	c0.2,0.6,0.4,1.3,0.9,2.6l1.5,4.1H112z"/>
<polygon fill="#365a9d" points="130.5,16.9 132.6,16.9 132.6,2.8 137,2.8 137.6,1 125.9,1 125.9,2.8 130.5,2.8 "/>
<rect fill="#365a9d" x="143.6" y="1" width="2.1" height="15.8"/>
<path fill="#365a9d" d="M160.7,17.1c4.4,0,7.8-3.2,7.8-8.1c0-4.7-3.2-8.1-7.8-8.1c-4.5,0-7.8,3.3-7.8,8.1C152.9,13.9,156.2,17.1,160.7,17.1z
	 M160.7,15.3c-3.3,0-5.5-2.4-5.5-6.3c0-3.8,2.2-6.3,5.5-6.3c3.5,0,5.5,2.7,5.5,6.3C166.2,12.8,164,15.3,160.7,15.3z"/>
<path fill="#365a9d" d="M175.6,16.9h2.1V7c0-1.1,0-1.9-0.1-2.6h0c0.6,0.8,1.2,1.7,2.1,2.9l7.4,9.7h1.9V1h-2.1v9.5c0,1.1,0,1.9,0,2.8h0
	c-0.5-0.8-1.2-1.8-2.1-3L177.6,1h-2.1V16.9z"/>
</svg>
